<?xml version="1.0" encoding="utf-8"?>
<!-- Generator: Adobe Illustrator 27.2.0, SVG Export Plug-In . SVG Version: 6.00 Build 0)  -->
<svg version="1.1" id="Layer_1" xmlns="http://www.w3.org/2000/svg" xmlns:xlink="http://www.w3.org/1999/xlink" x="0px" y="0px"
	 viewBox="0 0 96.5 23.4" style="enable-background:new 0 0 96.5 23.4;" xml:space="preserve">
<style type="text/css">
	.st0{clip-path:url(#SVGID_00000138554090012509603700000017964816278946612912_);}
	.st1{fill:#DF6951;}
</style>
<g>
	<defs>
		<rect id="SVGID_1_" x="1.2" y="0.3" transform="matrix(0.9876 -0.157 0.157 0.9876 -1.2662 7.8862)" width="96.1" height="23.3"/>
	</defs>
	<clipPath id="SVGID_00000011727807775140528550000015939529752756617371_">
		<use xlink:href="#SVGID_1_"  style="overflow:visible;"/>
	</clipPath>
	<g style="clip-path:url(#SVGID_00000011727807775140528550000015939529752756617371_);">
		<path class="st1" d="M0,8c5.6,8,29.8,15.9,46.2,15.4c17.6-0.5,27.3-4,46.1-16.8c-0.1,1.4-0.2,2.5-0.2,3.6c0,1.2,0,2.4,0.2,3.6
			c0.1,0.3,0.8,0.9,1.2,0.9c0.4,0,1-0.6,1.1-0.9c0.7-3.5,1.3-6.9,1.9-10.4c0.2-1.1-0.4-1.9-1.6-2.1C90.3,0.8,85.7,0.4,81.1,0
			c-1,0-2.2,0.4-3.6,0.6c1.5,2.8,3.9,2,5.8,2.5c2,0.5,4,0.7,6.5,1.1c-5,4.7-10.3,8-16.1,10.5c-21.2,9.1-42.3,7.7-63-1.7
			C8,11.8,5.4,10.3,2.8,8.9C2,8.7,1.3,8.5,0,8z"/>
	</g>
</g>
</svg>
