<svg width="12" height="12" viewBox="0 0 12 12" fill="none" xmlns="http://www.w3.org/2000/svg">
<path d="M9.7085 3.33889C10.2235 3.88589 10.5 4.49939 10.5 5.49389C10.5 7.24389 9.2715 8.81239 7.485 9.58789L7.0385 8.89889C8.706 7.99689 9.032 6.82639 9.162 6.08839C8.8935 6.22739 8.542 6.27589 8.1975 6.24389C7.2955 6.16039 6.5845 5.41989 6.5845 4.49939C6.5845 4.03526 6.76887 3.59014 7.09706 3.26195C7.42525 2.93376 7.87037 2.74939 8.3345 2.74939C8.59117 2.75163 8.84483 2.80491 9.08072 2.90611C9.31661 3.00732 9.53001 3.15443 9.7085 3.33889ZM4.7085 3.33889C5.2235 3.88589 5.5 4.49939 5.5 5.49389C5.5 7.24389 4.2715 8.81239 2.485 9.58789L2.0385 8.89889C3.706 7.99689 4.032 6.82639 4.162 6.08839C3.8935 6.22739 3.542 6.27589 3.1975 6.24389C2.2955 6.16039 1.5845 5.41989 1.5845 4.49939C1.5845 4.03526 1.76887 3.59014 2.09706 3.26195C2.42525 2.93376 2.87037 2.74939 3.3345 2.74939C3.59117 2.75163 3.84483 2.80491 4.08072 2.90611C4.31661 3.00732 4.53001 3.15443 4.7085 3.33889Z" fill="black"/>
</svg>
